<?xml version="1.0" ?><!DOCTYPE svg  PUBLIC '-//W3C//DTD SVG 1.1//EN'  'http://www.w3.org/Graphics/SVG/1.1/DTD/svg11.dtd'><svg enable-background="new 0 0 50 50" height="50px" version="1.1" viewBox="0 0 50 50" width="50px" xml:space="preserve" xmlns="http://www.w3.org/2000/svg" xmlns:xlink="http://www.w3.org/1999/xlink"><g id="Layer_23"><path clip-rule="evenodd" d="M19.329,12.003c-0.491,2.149-0.815,3.225-0.374,5.468   c0.255,1.294,0.708,2.633,1.235,4.078c0.52,1.424,0.769,2.786,0.773,4.303l0.085,22.407c3.109,2.369,5.129,2.265,8.263,0.027   l0.082-22.441c0.005-1.623,0.102-2.879,0.528-4.296c0.621-2.076,1.424-3.688,1.785-5.943c0.411-2.572,0.108-4.642-0.256-7.148   l-0.997,0.339C29.844,4.951,28.031,2.629,25.26,0c-1.655,1.357-3.097,2.532-3.802,4.679l-0.797-0.123   C19.154,7.193,18.669,9.03,19.329,12.003 M39.338,12.34c0.108-0.598,0.4-1.137,0.773-1.61c1.176,1.439,1.877,3.115,2.035,4.972   c-0.939,1.115-1.704,2.387-2.088,3.568l1.422,0.821c0.583-0.583,1.183-1.18,1.795-1.763c-0.022,2.435-0.838,4.036-1.546,6.286   c-0.504,1.595-0.595,2.922-0.6,4.564l-0.065,17.741c-0.64,0.31-1.205,0.338-1.848,0.019l-0.068-17.76   c-0.005-1.598-0.266-3.063-0.813-4.564c-0.405-1.115-0.781-2.199-0.991-3.369c0.717,0.671,1.414,1.365,2.091,2.042l1.422-0.821   c-0.471-1.448-1.513-3.03-2.746-4.294c-0.451-1.21-0.753-2.537-0.479-3.823c0.723,0.675,1.426,1.376,2.125,2.075l1.422-0.821   C40.827,14.528,40.162,13.379,39.338,12.34z M40.218,6.832c-1.456,1.194-2.733,2.21-3.394,4.039l-0.651-0.101   c-1.326,2.323-1.809,3.867-1.256,6.507c-0.722,3.023-0.618,4.317,0.426,7.337c0.579,1.674,0.986,2.766,0.99,4.564l0.073,19.235   c2.826,2.157,4.611,2.065,7.465,0.026l0.07-19.262c0.005-1.751,0.136-2.891,0.776-4.564c1.61-4.185,1.579-6.192,0.943-10.562   l-0.857,0.291C44.207,11.026,42.615,9.105,40.218,6.832z M9.59,10.731c1.177,1.439,1.877,3.115,2.035,4.972   c-0.939,1.115-1.704,2.387-2.088,3.568l1.422,0.821c0.584-0.583,1.183-1.18,1.795-1.763c-0.022,2.435-0.838,4.036-1.546,6.286   c-0.504,1.595-0.595,2.922-0.6,4.564l-0.065,17.741c-0.64,0.31-1.205,0.338-1.848,0.019l-0.068-17.76   c-0.005-1.598-0.266-3.063-0.813-4.564c-0.405-1.115-0.782-2.199-0.992-3.369c0.717,0.671,1.414,1.365,2.091,2.042l1.422-0.821   c-0.471-1.448-1.513-3.03-2.746-4.294c-0.451-1.21-0.753-2.537-0.48-3.823c0.724,0.675,1.426,1.376,2.125,2.075l1.422-0.821   c-0.35-1.075-1.015-2.224-1.839-3.263C8.926,11.743,9.218,11.203,9.59,10.731z M14.284,14.344   c-0.596-3.317-2.188-5.239-4.586-7.511c-1.455,1.194-2.733,2.21-3.394,4.039l-0.651-0.101c-1.327,2.323-1.809,3.867-1.256,6.507   c-0.722,3.023-0.619,4.317,0.426,7.337c0.579,1.674,0.986,2.766,0.99,4.564l0.073,19.235c2.826,2.157,4.611,2.065,7.465,0.026   l0.07-19.262c0.005-1.751,0.136-2.891,0.776-4.564c1.61-4.185,1.578-6.192,0.943-10.562L14.284,14.344z M29.079,12.394   c0.042,0.99-0.015,1.894-0.155,2.771c-0.374,2.342-1.394,4.178-1.921,6.379c-0.33,1.379-0.42,2.696-0.426,4.307l-0.076,20.925   c-0.911,0.484-1.732,0.523-2.646,0.021l-0.079-20.946c-0.004-1.519-0.202-2.895-0.618-4.299c-0.464-1.564-1.112-2.988-1.433-4.622   c-0.082-0.417-0.138-0.822-0.161-1.216c0.843,0.774,1.659,1.586,2.448,2.375l1.422-0.821c-0.664-1.76-1.702-3.254-2.957-4.492   c-0.555-1.581-0.853-3.268-0.327-4.899c0.844,0.774,1.66,1.586,2.448,2.375l1.422-0.821c-0.372-1.143-1.1-2.371-1.997-3.459   c0.167-0.787,0.597-1.501,1.121-2.104c1.476,1.723,2.377,3.735,2.607,5.998c-1.144,1.226-2.098,2.713-2.543,4.081l1.422,0.821   C27.42,13.98,28.235,13.168,29.079,12.394z" fill-rule="evenodd"/></g><g id="Layer_22"/><g id="Layer_21"/><g id="Layer_20"/><g id="Layer_19"/><g id="Layer_18"/><g id="Layer_17"/><g id="Layer_16"/><g id="Layer_15"/><g id="Layer_14"/><g id="Layer_13"/><g id="Layer_12"/><g id="Layer_11"/><g id="Layer_10"/><g id="Layer_9"/><g id="Layer_8"/><g id="Layer_7"/><g id="Layer_6"/><g id="Layer_5"/><g id="Layer_4"/><g id="Layer_3"/><g id="Layer_2"/></svg>